<svg width="1070" height="969" viewBox="0 0 1070 969" fill="none" xmlns="http://www.w3.org/2000/svg">
<path fill-rule="evenodd" clip-rule="evenodd" d="M517.789 75.5657C603.64 88.7492 689.956 65.1589 770.851 97.8666C872.963 139.152 988.637 182.423 1036.21 285.173C1085.36 391.332 1082.5 533.397 1017 629.502C953.891 722.091 811.184 688.251 719.545 749.77C636.669 805.407 614.32 943.683 517.789 964.63C419.443 985.972 315.961 926.001 244.044 852.957C176.986 784.848 183.725 675.617 145.539 586.544C100.528 481.553 -10.7663 400.014 0.843633 285.672C12.8106 167.814 97.9783 53.908 203.996 10.8183C305.822 -30.5675 409.653 58.9598 517.789 75.5657Z" fill="white"/>
<g clip-path="url(#clip0_338_39)">
<path d="M839.745 696.758H680.479V691.871C680.479 687.628 682.165 683.558 685.166 680.557C688.166 677.557 692.236 675.871 696.479 675.871H823.745C827.989 675.871 832.058 677.557 835.059 680.557C838.059 683.558 839.745 687.628 839.745 691.871V696.758Z" fill="#E6E6E6"/>
<path d="M756.385 676.846L761.228 674.896C710.551 549.107 715.433 390.414 758.272 254.283C763.36 238.51 763.727 221.594 759.328 205.615C754.928 189.637 745.953 175.293 733.507 164.348C708.643 142.16 674.363 136.754 644.04 150.24C614.11 163.554 609.984 186.745 609.984 209.823H615.206C615.206 185.189 620.471 166.44 646.163 155.011C674.582 142.372 706.718 147.442 730.03 168.245C741.72 178.524 750.15 191.997 754.282 207.004C758.415 222.012 758.07 237.9 753.291 252.715C709.958 390.417 705.362 550.201 756.385 676.846Z" fill="#E6E6E6"/>
<path d="M613.901 286.845C623.995 286.845 632.177 278.663 632.177 268.569C632.177 258.475 623.995 250.292 613.901 250.292C603.807 250.292 595.625 258.475 595.625 268.569C595.625 278.663 603.807 286.845 613.901 286.845Z" fill="#E6E6E6"/>
<path d="M585.754 300.43V265.8H591.138V300.43C592.683 301.055 593.962 302.197 594.757 303.662C595.551 305.126 595.812 306.821 595.493 308.457C595.175 310.092 594.298 311.566 593.012 312.626C591.727 313.685 590.112 314.265 588.446 314.265C586.78 314.265 585.166 313.685 583.88 312.626C582.594 311.566 581.717 310.092 581.399 308.457C581.081 306.821 581.341 305.126 582.136 303.662C582.93 302.197 584.209 301.055 585.754 300.43Z" fill="#E6E6E6"/>
<path d="M559.725 239.196C559.734 231.235 562.9 223.604 568.529 217.975C574.158 212.346 581.79 209.179 589.75 209.17H639.357C647.321 209.17 654.958 212.334 660.589 217.965C666.219 223.596 669.383 231.233 669.383 239.196C669.383 247.159 666.219 254.796 660.589 260.427C654.958 266.058 647.321 269.221 639.357 269.221H589.75C581.79 269.212 574.158 266.046 568.529 260.417C562.9 254.788 559.734 247.156 559.725 239.196Z" fill="#715AFF"/>
<path d="M489.83 425.133C494.81 361.41 520.276 331.049 503.97 312.01C488.351 293.772 444.353 297.54 416.098 315.04C339.886 362.242 311.964 550.372 410.038 642.289C503.232 729.632 679.854 701.658 719.106 630.168C728.264 613.488 735.54 584.246 722.136 566.537C688.858 522.569 567.865 602.206 514.07 552.396C482.19 522.877 487.096 460.104 489.83 425.133Z" fill="#3F3D56"/>
<path d="M548.088 393.475C546.236 394.326 544.791 395.867 544.058 397.768C543.325 399.669 543.363 401.781 544.164 403.655C544.332 404.033 544.532 404.397 544.761 404.742L528.403 426.584L536.565 438.784L555.739 406.44C557.097 405.381 558.067 403.902 558.496 402.233C558.926 400.565 558.791 398.802 558.112 397.218C557.718 396.321 557.15 395.51 556.442 394.832C555.734 394.154 554.9 393.622 553.986 393.266C553.072 392.911 552.098 392.739 551.118 392.76C550.138 392.781 549.171 392.995 548.274 393.39C548.211 393.417 548.149 393.446 548.088 393.475Z" fill="#FFB6B6"/>
<path d="M548.074 431.133C549.145 432.083 546.175 433.254 543.034 431.406C542.135 430.871 541.752 430.649 541.651 430.79C541.398 431.143 542.873 433.749 542.479 439.537C542.236 442.991 536.499 449.486 529.985 455.818C521.177 464.383 510.936 472.646 510.936 472.646L507.34 469.767L469.636 439.537L463.272 430.729C463.855 427.251 464.73 423.829 465.888 420.498C467.484 415.887 469.38 411.386 471.565 407.024C472.736 404.65 473.938 402.388 475.09 400.307L495.29 422.568L512.218 441.214C512.218 441.214 517.147 433.275 520.965 431.113C521.452 430.802 522.006 430.612 522.581 430.558C526.44 430.376 526.672 428.275 522.198 423.7C517.723 419.124 523.369 423.397 527.349 422.164C531.328 420.932 527.349 422.164 528.187 419.084C529.025 416.003 540.186 409.822 540.186 409.822L540.651 410.236L549.084 417.68L551.498 419.811C551.498 419.811 548.862 427.043 548.135 428.568C547.408 430.093 547.014 430.174 548.074 431.133Z" fill="#715AFF"/>
<path d="M770.398 571.442L770.809 560.301L728.033 553.414L727.426 569.856L770.398 571.442Z" fill="#FFB6B6"/>
<path d="M762.633 574.796L762.228 556.958L769.853 557.24L782.164 540.749C782.772 539.934 783.625 539.336 784.597 539.04C785.57 538.744 786.611 538.767 787.57 539.105C788.528 539.443 789.354 540.079 789.925 540.919C790.497 541.759 790.785 542.76 790.748 543.776L789.966 564.966L782.288 568.34L789.778 570.045L789.484 578.034L762.633 574.796Z" fill="#2F2E41"/>
<path d="M529.649 575.779L665.137 579.215C665.137 579.215 723.645 582.594 737.373 573.664L751.849 571.836L752.633 550.573C752.633 550.573 743.781 550.638 738.692 548.267C733.602 545.895 737.14 542.994 732.287 545.847C727.435 548.7 727.947 549.043 724.196 547.732C720.444 546.421 548.4 520.197 548.4 520.197L529.649 575.779Z" fill="#2F2E41"/>
<path d="M708.186 566.552L716.065 558.665L689.39 524.522L677.762 536.164L708.186 566.552Z" fill="#FFB6B6"/>
<path d="M700.213 559.69L712.047 546.337L717.446 551.73L737.687 548.014C738.687 547.83 739.719 547.971 740.633 548.416C741.547 548.86 742.295 549.585 742.768 550.485C743.241 551.385 743.414 552.412 743.261 553.417C743.109 554.422 742.639 555.352 741.921 556.071L726.936 571.073L719.012 568.325L723.344 574.669L717.695 580.326L700.213 559.69Z" fill="#2F2E41"/>
<path d="M476.195 501.577L477.542 532.888C479.128 569.747 519.72 592.056 551.197 572.811C551.777 572.456 552.359 572.089 552.943 571.708C552.943 571.708 564.876 568.504 564.513 563.429C564.151 558.354 567.066 555.884 569.646 557.268C572.226 558.652 606.003 510.716 606.003 510.716C606.003 510.716 676.181 545.722 691.663 553.963C691.663 553.963 706.219 531.204 705.164 531.442C704.108 531.681 618.345 471.654 618.345 471.654C618.345 471.654 604.373 457.513 587.041 466.85C586.68 468.221 586.989 468.269 586.989 468.269L529.736 514.921L521.646 499.557L476.195 501.577Z" fill="#2F2E41"/>
<path d="M530.177 462.434C530.068 463.881 529.862 465.318 529.561 466.737C529.148 468.791 528.483 470.785 527.581 472.676C527.581 472.676 527.581 474.787 523.541 481.857C519.501 488.927 524.551 485.897 527.581 491.149C530.611 496.391 527.581 493.977 524.217 497.351C523.249 498.333 522.561 499.556 522.226 500.893C521.89 502.231 521.919 503.634 522.308 504.956C522.308 504.956 478.918 504.987 470.838 501.957C462.757 498.927 460.919 481.857 468.161 480.17C475.393 478.484 465.969 476.807 461.717 472.918C457.465 469.03 465.969 462.667 465.969 462.667C465.969 462.667 462.464 456.617 462.757 436.305C462.799 434.437 462.971 432.574 463.272 430.729C463.855 427.251 464.73 423.829 465.888 420.498C467.484 415.887 469.38 411.386 471.565 407.024C472.736 404.651 473.938 402.388 475.09 400.307C475.272 399.984 475.443 399.671 475.625 399.358C477.817 395.48 479.817 392.308 481.14 390.278C482.16 388.702 482.776 387.813 482.776 387.813L490.129 375.026L514.673 386.531L513.279 405.348L517.511 419.538L519.46 426.073L520.965 431.113L523.288 438.921C523.288 438.921 522.652 438.951 523.409 439.991C526.898 444.63 529.16 450.074 529.985 455.818C530.276 458.011 530.34 460.228 530.177 462.434Z" fill="#715AFF"/>
<path d="M601.056 464.462L600.595 464.313L541.851 445.396L563.498 374.38C563.929 372.966 564.675 371.668 565.681 370.584C566.686 369.5 567.925 368.659 569.303 368.123C570.681 367.588 572.162 367.372 573.636 367.492C575.109 367.613 576.536 368.066 577.809 368.818L615.349 390.997C618.321 392.751 620.581 395.493 621.736 398.744C622.891 401.996 622.867 405.55 621.668 408.785L601.056 464.462Z" fill="#2F2E41"/>
<path d="M601.294 468.977L542.077 449.908L563.724 378.891C564.155 377.477 564.902 376.179 565.907 375.095C566.913 374.012 568.151 373.17 569.529 372.635C570.907 372.099 572.389 371.883 573.862 372.004C575.336 372.124 576.763 372.577 578.036 373.329L617.368 392.967C623.277 396.457 623.139 405.49 620.395 412.902L601.294 468.977Z" fill="#715AFF"/>
<path d="M595.366 474.117C594.002 474.886 592.493 475.364 590.935 475.518C589.377 475.673 587.804 475.503 586.316 475.017L548.466 462.828C545.562 461.879 543.144 459.833 541.728 457.125C540.313 454.418 540.012 451.264 540.891 448.338L559.867 386.083C560.246 384.839 560.87 383.684 561.701 382.684C562.533 381.685 563.556 380.861 564.71 380.262C565.864 379.663 567.126 379.301 568.422 379.196C569.718 379.091 571.022 379.246 572.257 379.652L611.482 392.531C613.35 393.144 615.078 394.126 616.561 395.419C618.044 396.711 619.253 398.287 620.117 400.054C620.98 401.822 621.481 403.744 621.589 405.708C621.697 407.672 621.411 409.638 620.747 411.49L600.457 468.055C599.546 470.623 597.738 472.776 595.366 474.117Z" fill="#3F3D56"/>
<path d="M513.285 375.245C528.257 375.245 540.395 363.107 540.395 348.135C540.395 333.162 528.257 321.025 513.285 321.025C498.312 321.025 486.175 333.162 486.175 348.135C486.175 363.107 498.312 375.245 513.285 375.245Z" fill="#FFB6B6"/>
<path d="M421.612 375.653C424.099 380.476 428.179 384.289 433.157 386.447C435.144 387.352 437.233 388.013 439.379 388.416C439.986 386.01 440.957 383.712 442.259 381.6C441.825 383.98 441.825 386.419 442.259 388.8C445.528 389.067 448.817 388.659 451.922 387.6C454.971 386.563 457.736 384.83 459.999 382.538C462.261 380.246 463.958 377.458 464.955 374.396C467.115 367.21 464.789 359.535 464.606 352.034C464.417 344.532 467.979 335.56 475.426 334.632C481.097 333.924 480.396 334.473 484.471 338.48C478.771 344.812 492.667 372.857 500.124 371.618C504.339 370.917 507.442 367.57 508.275 367.686C512.545 378.142 499.702 392.972 509.888 397.84L509.132 396.84C503.8 388.031 519.577 373.154 514.245 364.346C512.759 361.882 511.213 358.993 512.133 356.267C513.006 353.675 517.426 352.855 518.359 355.214C516.843 349.807 521.075 343.462 526.697 342.91C531.691 342.417 531.403 343.84 536.164 345.139C536.773 343.088 537.649 341.126 538.772 339.305C538.392 341.383 538.345 343.508 538.633 345.601C540.35 345.806 542.087 345.438 543.574 344.555C547.972 341.919 548.102 335.115 545.082 330.974C542.056 326.832 536.987 324.787 532.097 323.239C532.052 312.898 504.225 307.947 499.107 317.562C498.581 309.777 489.657 304.533 481.969 305.855C474.282 307.178 468.217 313.342 464.52 320.212C460.823 327.077 458.988 334.765 456.281 342.077C453.575 349.39 449.706 356.681 443.226 361.02C436.746 365.353 427.116 365.747 421.706 360.13C420.472 362.529 419.82 365.184 419.804 367.881C419.788 370.577 420.407 373.24 421.612 375.653Z" fill="#2F2E41"/>
<path d="M449.429 499.626C449.989 499.177 450.598 498.792 451.243 498.476C461.62 493.312 493.889 479.907 519.12 480.457C567.668 481.515 629.452 535.094 615.073 571.074C604.132 598.452 549.737 614.028 510.03 601.57C454.404 584.117 432.448 513.165 449.429 499.626Z" fill="#3F3D56"/>
<path d="M247.886 696.862C232.023 693.869 217.981 622.401 249.192 587.203C259.885 575.144 273.224 569.895 290.966 565.01C393.088 536.896 470.977 563.69 481.444 570.232C491.888 576.76 510.197 675.108 486.785 689.029C473.612 696.862 447.503 700.778 434.566 691.64C415.532 678.194 447.482 643.316 433.261 619.84C417.123 593.199 332.146 584.225 289.542 610.701C244.089 638.949 337.844 713.832 247.886 696.862Z" fill="#F2F2F2"/>
<path d="M353.947 575.351H293.343C278.382 561.013 267.685 547.195 276.249 535.725C276.249 532.428 277.559 529.266 279.891 526.935C282.222 524.603 285.384 523.293 288.681 523.293H358.609C361.906 523.293 365.068 524.603 367.4 526.935C369.731 529.266 371.041 532.428 371.041 535.725C374.301 548.794 368.476 562.005 353.947 575.351Z" fill="#CCCCCC"/>
<path d="M343.063 507.643C342.488 507.67 341.919 507.519 341.432 507.211C340.946 506.903 340.566 506.453 340.344 505.922C340.122 505.391 340.069 504.804 340.191 504.242C340.313 503.679 340.606 503.168 341.028 502.777L341.221 502.013C341.195 501.951 341.17 501.89 341.144 501.829C340.565 500.461 339.594 499.294 338.354 498.476C337.114 497.657 335.66 497.224 334.174 497.229C332.688 497.235 331.237 497.679 330.003 498.507C328.769 499.334 327.807 500.508 327.238 501.881C324.963 507.359 322.067 512.846 321.354 518.638C321.04 521.199 321.173 523.794 321.746 526.309C316.404 514.656 313.63 501.99 313.612 489.17C313.611 485.953 313.789 482.739 314.147 479.542C314.443 476.921 314.853 474.319 315.378 471.735C318.241 457.718 324.389 444.579 333.316 433.398C337.636 431.041 341.131 427.415 343.327 423.011C344.123 421.427 344.686 419.737 344.997 417.993C344.51 418.057 343.16 410.634 343.527 410.178C342.848 409.148 341.632 408.635 340.89 407.63C337.201 402.627 332.118 403.501 329.464 410.298C323.796 413.159 323.741 417.904 327.219 422.467C329.432 425.371 329.736 429.299 331.678 432.407C331.478 432.663 331.27 432.911 331.07 433.166C327.419 437.862 324.236 442.904 321.568 448.22C322.217 442.264 321.443 436.24 319.309 430.641C317.146 425.424 313.092 421.03 309.523 416.52C305.235 411.102 296.442 413.467 295.687 420.334C295.68 420.401 295.672 420.467 295.666 420.534C296.196 420.833 296.715 421.15 297.223 421.486C297.861 421.912 298.355 422.521 298.641 423.233C298.927 423.945 298.991 424.727 298.825 425.476C298.659 426.225 298.271 426.907 297.711 427.431C297.151 427.956 296.446 428.299 295.687 428.416L295.61 428.428C295.799 430.339 296.132 432.233 296.608 434.093C292.029 451.803 301.916 458.254 316.033 458.544C316.344 458.703 316.648 458.863 316.96 459.015C314.279 466.611 312.598 474.524 311.958 482.554C311.595 487.292 311.617 492.051 312.022 496.785L311.998 496.617C310.975 491.353 308.167 486.603 304.047 483.17C297.929 478.144 289.285 476.293 282.685 472.253C281.983 471.803 281.168 471.562 280.334 471.56C279.5 471.558 278.684 471.795 277.98 472.242C277.276 472.689 276.715 473.327 276.363 474.083C276.01 474.838 275.881 475.679 275.991 476.505C275.999 476.564 276.008 476.623 276.018 476.681C277.001 477.082 277.959 477.544 278.886 478.064C279.416 478.363 279.935 478.68 280.443 479.016C281.081 479.442 281.575 480.051 281.861 480.763C282.147 481.475 282.211 482.257 282.045 483.006C281.879 483.755 281.491 484.437 280.931 484.961C280.371 485.486 279.666 485.829 278.908 485.946L278.83 485.958C278.774 485.966 278.726 485.974 278.67 485.982C280.351 489.996 282.711 493.691 285.646 496.905C288.509 512.365 300.808 513.832 313.963 509.33H313.971C315.415 515.602 317.506 521.707 320.212 527.547H342.505C342.585 527.3 342.656 527.044 342.728 526.796C340.665 526.926 338.593 526.803 336.56 526.429C338.214 524.399 339.868 522.354 341.522 520.324C341.559 520.286 341.593 520.246 341.626 520.204C342.465 519.166 343.312 518.135 344.151 517.096L344.151 517.095C344.196 513.911 343.83 510.734 343.063 507.643Z" fill="#CCCCCC"/>
<path d="M419.1 572.104C419.469 573.18 420.171 574.112 421.103 574.765C422.035 575.418 423.15 575.759 424.289 575.739L446.521 575.166C447.668 575.144 448.776 574.751 449.681 574.047C450.586 573.342 451.238 572.364 451.541 571.258L454.687 537.616C455.803 538.121 457.018 538.371 458.243 538.346C460.393 538.292 462.433 537.387 463.915 535.828C465.397 534.27 466.199 532.187 466.146 530.037C466.092 527.888 465.186 525.847 463.628 524.365C462.069 522.884 459.986 522.081 457.837 522.135C457.347 522.134 456.858 522.185 456.379 522.287C455.859 521.723 455.226 521.275 454.521 520.971C453.817 520.667 453.056 520.514 452.289 520.522L418.09 521.405C417.806 521.415 417.524 521.451 417.246 521.51C416.496 521.65 415.785 521.948 415.16 522.386C414.535 522.824 414.012 523.39 413.624 524.048C413.237 524.705 412.994 525.437 412.914 526.196C412.833 526.955 412.916 527.722 413.157 528.446L419.1 572.104ZM455.332 535.331L457.571 527.314C457.825 526.388 457.831 525.411 457.588 524.482C457.697 524.482 457.792 524.43 457.901 524.43C459.436 524.399 460.92 524.977 462.03 526.039C463.139 527.1 463.782 528.558 463.818 530.093C463.853 531.627 463.279 533.114 462.221 534.226C461.163 535.338 459.707 535.985 458.173 536.026C457.18 536.057 456.198 535.817 455.332 535.331Z" fill="#CCCCCC"/>
<path d="M417.247 521.51C417.975 525.676 426.167 528.605 436.017 528.095C445.074 527.678 452.48 524.498 453.837 520.728C453.335 520.58 452.813 520.51 452.289 520.522L418.09 521.405C417.806 521.415 417.524 521.451 417.247 521.51Z" fill="white"/>
<path d="M160.785 698.439L909.535 698.746C909.851 698.746 910.154 698.621 910.377 698.397C910.6 698.174 910.726 697.871 910.726 697.556C910.726 697.24 910.6 696.937 910.377 696.714C910.154 696.49 909.851 696.365 909.535 696.365L160.785 696.057C160.469 696.057 160.166 696.183 159.943 696.406C159.72 696.63 159.594 696.932 159.594 697.248C159.594 697.564 159.72 697.867 159.943 698.09C160.166 698.313 160.469 698.439 160.785 698.439Z" fill="#CACACA"/>
<path d="M580.736 432.334C578.699 432.409 576.773 433.275 575.365 434.748C573.958 436.221 573.181 438.186 573.199 440.223C573.21 440.637 573.254 441.05 573.333 441.456L549.834 455.33L552.678 469.73L582.814 447.245C584.475 446.79 585.939 445.797 586.977 444.422C588.014 443.047 588.568 441.367 588.551 439.644C588.531 438.664 588.319 437.697 587.926 436.799C587.533 435.901 586.968 435.089 586.261 434.41C585.554 433.73 584.721 433.197 583.808 432.84C582.895 432.482 581.921 432.308 580.94 432.328C580.872 432.329 580.804 432.331 580.736 432.334Z" fill="#FFB6B6"/>
<path d="M561.486 465.407C560.857 464.565 560.587 464.213 560.444 464.309C560.076 464.531 560.43 467.507 557.842 472.692C554.199 479.977 515.998 491.135 515.998 491.135L511.295 482.524L490.607 444.684L483.477 414.354C483.227 413.297 483.106 412.213 483.116 411.127C489.474 406.653 496.225 402.766 503.287 399.516C506.109 401.117 508.26 403.68 509.348 406.736L523.588 446.665L529.271 462.608C529.271 462.608 539.295 455.44 542.931 456.755C546.561 458.079 547.593 456.223 545.22 450.281C542.847 444.338 546.409 450.455 550.554 450.844C554.707 451.238 550.554 450.844 552.515 448.322C554.477 445.8 567.16 444.382 567.16 444.382L567.43 444.944L572.345 455.055L573.752 457.96C573.752 457.96 568.541 463.613 567.284 464.74C566.021 465.875 565.631 465.796 566.249 467.089C566.859 468.376 563.669 468.318 561.486 465.407Z" fill="#715AFF"/>
</g>
<defs>
<clipPath id="clip0_338_39">
<rect width="751.131" height="556.415" fill="white" transform="translate(159.594 142.921)"/>
</clipPath>
</defs>
</svg>
