<svg width="685" height="648" viewBox="0 0 685 648" fill="none" xmlns="http://www.w3.org/2000/svg">
<path fill-rule="evenodd" clip-rule="evenodd" d="M288.208 0.180302C377.153 -3.4176 456.432 47.3092 524.192 109.525C599.43 178.606 693.697 257.854 684.357 363.915C675.182 468.096 565.248 518.135 483.272 574.193C423.869 614.814 358.307 628.45 288.208 634.814C208.154 642.083 117.73 669.892 57.2639 612.871C-4.73441 554.405 -1.26215 452.68 0.939762 363.915C3.06409 278.276 17.7762 193.156 69.2934 127.926C125.212 57.1229 202.009 3.66713 288.208 0.180302Z" fill="white"/>
<g clip-path="url(#clip0_339_67)">
<path d="M452.682 482.422L330.198 497.349L344.304 455.032L450.603 451.652C455.674 445.661 463.79 441.488 473.178 440.854C489.606 439.744 503.667 449.865 504.585 463.46C505.504 477.056 492.931 488.976 476.504 490.086C467.115 490.72 458.513 487.676 452.682 482.422Z" fill="#E29295"/>
<path d="M364.507 312.981L372.657 425.448L413.168 452.929L404.351 484.667L293.312 497.74L334.64 320.536L355.844 308.373C359.548 306.249 364.199 308.722 364.507 312.981Z" fill="#2F2E43"/>
<path d="M308.938 170.821C321.165 140.279 355.836 125.431 386.379 137.658C416.921 149.886 431.769 184.557 419.541 215.099C409.625 239.869 384.947 254.313 359.681 252.367L320.705 318.74L284.387 251.505C284.387 251.505 302.164 241.222 315.248 226.84C304.289 210.962 301.23 190.074 308.938 170.821Z" fill="#E29295"/>
<path d="M348.942 288.697L281.939 216.405C281.939 216.405 255.491 204.062 246.675 242.853C246.675 242.853 199.83 259.604 183.139 315.145C166.448 370.687 140 534.666 140 534.666L342.77 524.087L363.736 317.651C364.927 305.93 359.137 294.6 348.942 288.697Z" fill="#2F2E43"/>
<path d="M258.136 243.735C258.136 243.735 315.524 282.526 317.686 315.145" stroke="#E6E6E6" stroke-miterlimit="10"/>
<path d="M546.422 415.649C546.422 415.649 545.925 415.309 537.606 392.727L456.386 447.366L481.183 468.545L546.422 415.649Z" fill="#715AFF"/>
<path d="M444.977 487.12L322.493 502.047L336.599 459.729L442.898 456.349C447.97 450.359 456.085 446.186 465.474 445.551C481.901 444.441 495.962 454.563 496.881 468.158C497.799 481.753 485.227 493.674 468.799 494.783C459.411 495.417 450.808 492.374 444.977 487.12Z" fill="#E29295"/>
<path d="M293.4 430.636V324.675C293.4 324.675 267.254 234.252 200.1 280.429C200.1 280.429 219.345 498.327 252.846 507.68C286.347 517.033 333.954 502.928 333.954 502.928L350.205 450.882L293.4 430.636Z" fill="#2F2E43"/>
<path d="M200.101 280.429C200.101 280.429 219.345 498.327 252.846 507.68C286.347 517.034 333.954 502.928 333.954 502.928" stroke="#E6E6E6" stroke-miterlimit="10"/>
<path d="M350.205 450.882L293.4 430.636V324.675" stroke="#E6E6E6" stroke-miterlimit="10"/>
<path d="M312.934 224.478C312.934 224.478 319.621 192.856 337.982 185.957C356.3 179.074 347.856 199.811 347.856 199.811L357.379 202.237C357.379 202.237 365.592 182.072 384.077 187.111L384.821 158.544C384.821 158.544 422.259 187.32 425.409 183.876C450.196 156.773 377.905 86.8999 330.111 123.261C255.775 179.814 312.934 224.478 312.934 224.478Z" fill="#2F2E43"/>
</g>
<defs>
<clipPath id="clip0_339_67">
<rect width="406.422" height="421.666" fill="white" transform="translate(140 113)"/>
</clipPath>
</defs>
</svg>
